<svg width="107" height="103" viewBox="0 0 107 103" fill="none" xmlns="http://www.w3.org/2000/svg">
	<circle cx="48.1357" cy="54.1357" r="48.1357" fill="#E8F9FF"/>
	<path d="M106.259 79.1497H99.5532V35.5415C99.5516 34.1586 99.0016 32.8329 98.0238 31.8551C97.046 30.8773 95.7203 30.3273 94.3375 30.3257H77.2461C75.5957 21.71 71.7115 13.0928 64.2604 3.81771C64.1881 3.73473 64.0988 3.66821 63.9986 3.62263C63.8984 3.57705 63.7896 3.55347 63.6796 3.55347C63.5695 3.55347 63.4607 3.57705 63.3605 3.62263C63.2603 3.66821 63.1711 3.73473 63.0988 3.81771C55.5568 13.2061 51.5742 21.8113 49.8299 30.3257H32.6424C31.2596 30.3273 29.9339 30.8773 28.9561 31.8551C27.9783 32.8329 27.4283 34.1586 27.4267 35.5415V79.1497H20.7207C20.5231 79.1497 20.3336 79.2282 20.1938 79.368C20.0541 79.5077 19.9756 79.6972 19.9756 79.8948V82.8261C19.9774 84.198 20.5233 85.5133 21.4935 86.4833C22.4638 87.4532 23.7792 87.9987 25.1511 88.0001H101.823C103.195 87.9989 104.51 87.4535 105.481 86.4835C106.451 85.5135 106.997 84.1982 106.999 82.8261V79.8948C106.999 79.6981 106.921 79.5094 106.783 79.3698C106.644 79.2302 106.456 79.1511 106.259 79.1497Z" fill="#E6E7E8"/>
	<path d="M95.8287 76.9143V32.561C95.8287 31.3753 95.3577 30.2382 94.5193 29.3998C93.6809 28.5613 92.5438 28.0903 91.3581 28.0903H29.663C28.4773 28.0903 27.3402 28.5613 26.5018 29.3998C25.6634 30.2382 25.1924 31.3753 25.1924 32.561V76.9143H95.8287Z" fill="#6DC9F7"/>
	<path d="M89.123 28.0903H91.3584C92.5441 28.0903 93.6812 28.5613 94.5196 29.3998C95.358 30.2382 95.829 31.3753 95.829 32.561V76.9143H93.5937V32.561C93.5937 31.3753 93.1227 30.2382 92.2843 29.3998C91.4459 28.5613 90.3087 28.0903 89.123 28.0903Z" fill="white"/>
	<path d="M90.5916 76.9145V36.1653C90.5916 35.77 90.4346 35.391 90.1551 35.1115C89.8756 34.8321 89.4966 34.675 89.1013 34.675H31.918C31.5227 34.675 31.1437 34.8321 30.8642 35.1115C30.5847 35.391 30.4277 35.77 30.4277 36.1653V76.9145H90.5916Z" fill="#D4FBFF"/>
	<path d="M17.7441 76.9141V79.8446C17.7441 81.0194 18.2108 82.1461 19.0416 82.9768C19.8723 83.8076 20.999 84.2742 22.1738 84.2742H98.8455C99.4273 84.2743 100.003 84.1598 100.541 83.9373C101.079 83.7147 101.567 83.3885 101.979 82.9771C102.39 82.5658 102.716 82.0775 102.939 81.54C103.162 81.0025 103.277 80.4264 103.277 79.8446V76.9141H17.7441Z" fill="#0089EF"/>
	<path d="M17.7441 76.9141V79.8446C17.7441 81.0194 18.2108 82.1461 19.0416 82.9768C19.8723 83.8076 20.999 84.2742 22.1738 84.2742H98.8455C99.4273 84.2743 100.003 84.1598 100.541 83.9373C101.079 83.7147 101.567 83.3885 101.979 82.9771C102.39 82.5658 102.716 82.0775 102.939 81.54C103.162 81.0025 103.277 80.4264 103.277 79.8446V76.9141H17.7441Z" fill="#0089EF"/>
	<path d="M46.3164 76.9141V78.3976C46.3164 78.9922 46.5526 79.5625 46.9731 79.9829C47.3935 80.4034 47.9638 80.6396 48.5584 80.6396H72.4638C73.0585 80.6396 73.6288 80.4034 74.0494 79.983C74.47 79.5625 74.7064 78.9923 74.7066 78.3976V76.9141H46.3164Z" fill="#6DC9F7"/>
	<path d="M73.4707 51.3174H84.7263C84.7263 51.3174 83.8411 36.7997 74.0504 30.4707C74.9192 37.1238 74.5399 43.9356 73.4707 51.3174Z" fill="#FFD7E5"/>
	<path d="M47.0742 30.4062C37.1881 36.6994 36.2939 51.3177 36.2939 51.3177H47.4818C46.4081 43.9143 46.1063 37.0802 47.0742 30.4062Z" fill="#FFD7E5"/>
	<path d="M47.5195 51.3176H73.5015V56.3501C73.5015 57.1406 73.1875 57.8986 72.6285 58.4576C72.0696 59.0165 71.3115 59.3305 70.521 59.3305H50.5C49.7095 59.3305 48.9514 59.0165 48.3925 58.4576C47.8335 57.8986 47.5195 57.1406 47.5195 56.3501V51.3176Z" fill="#0089EF"/>
	<path d="M47.4823 51.3182C44.8633 33.2396 46.8229 18.5803 60.6998 1.30347C74.5775 18.5803 76.09 33.2396 73.471 51.3182H47.4823Z" fill="#FA759E"/>
	<path d="M55.3345 43.377C55.0637 43.3771 54.7999 43.2911 54.5812 43.1313C54.3625 42.9716 54.2003 42.7465 54.118 42.4885C54.0357 42.2305 54.0376 41.953 54.1234 41.6962C54.2092 41.4393 54.3745 41.2164 54.5953 41.0597L54.9642 40.7982C55.4802 40.4331 55.9012 39.9497 56.1921 39.3886C56.483 38.8274 56.6353 38.2047 56.6362 37.5726V25.4608C56.6376 24.2116 57.1345 23.0138 58.0178 22.1304C58.9012 21.2471 60.099 20.7502 61.3483 20.7488C62.2835 20.7493 63.1965 21.0332 63.9671 21.5631C64.7378 22.093 65.3297 22.8439 65.665 23.7169C66.0003 24.5899 66.0632 25.5441 65.8454 26.4536C65.6276 27.363 65.1393 28.1852 64.4449 28.8116C65.4477 29.462 66.2131 30.4194 66.6269 31.5407C67.0407 32.662 67.0806 33.887 66.7408 35.0329C66.4009 36.1788 65.6995 37.184 64.7413 37.8983C63.7831 38.6127 62.6195 38.998 61.4243 38.9965H60.9995C60.8294 39.0006 60.6601 38.9706 60.5017 38.9084C60.3433 38.8461 60.1989 38.7528 60.0771 38.6339C59.9553 38.515 59.8586 38.3729 59.7925 38.2161C59.7264 38.0592 59.6923 37.8907 59.6923 37.7205C59.6923 37.5503 59.7264 37.3818 59.7925 37.2249C59.8586 37.0681 59.9553 36.926 60.0771 36.8071C60.1989 36.6882 60.3433 36.5949 60.5017 36.5326C60.6601 36.4704 60.8294 36.4404 60.9995 36.4445H61.4243C62.1215 36.4442 62.7967 36.2001 63.3329 35.7545C63.8691 35.3088 64.2326 34.6897 64.3604 34.0043C64.4882 33.3189 64.3722 32.6103 64.0327 32.0014C63.6931 31.3924 63.1512 30.9214 62.5009 30.6699L60.5704 29.9248C60.2921 29.8178 60.0601 29.6168 59.9146 29.3566C59.7691 29.0964 59.7194 28.7934 59.774 28.5004C59.8287 28.2073 59.9842 27.9426 60.2137 27.7523C60.4431 27.562 60.732 27.458 61.0301 27.4585H61.3445C61.8884 27.4482 62.4065 27.2249 62.7874 26.8367C63.1684 26.4484 63.3818 25.9262 63.3818 25.3822C63.3818 24.8383 63.1684 24.3161 62.7874 23.9278C62.4065 23.5396 61.8884 23.3163 61.3445 23.306C60.7714 23.306 60.2218 23.5337 59.8166 23.9389C59.4114 24.3441 59.1837 24.8937 59.1837 25.4668V37.5726C59.1828 38.6123 58.9331 39.6366 58.4555 40.5601C57.9778 41.4836 57.286 42.2793 56.438 42.8808L56.0699 43.1423C55.855 43.2948 55.598 43.3768 55.3345 43.377Z" fill="white"/>
	<path d="M53.3545 59.3308H67.668V62.7084C67.668 63.1036 67.511 63.4827 67.2316 63.7621C66.9521 64.0416 66.5731 64.1986 66.1778 64.1986H54.8447C54.4495 64.1986 54.0704 64.0416 53.791 63.7621C53.5115 63.4827 53.3545 63.1036 53.3545 62.7084V59.3308Z" fill="#6DC9F7"/>
	<path d="M30.4277 66.7545C30.6253 66.7545 30.8149 66.676 30.9546 66.5363C31.0943 66.3966 31.1728 66.207 31.1728 66.0094V57.0681C31.1728 56.8705 31.0943 56.681 30.9546 56.5412C30.8149 56.4015 30.6253 56.323 30.4277 56.323C30.2301 56.323 30.0406 56.4015 29.9009 56.5412C29.7611 56.681 29.6826 56.8705 29.6826 57.0681V66.0094C29.6826 66.207 29.7611 66.3966 29.9009 66.5363C30.0406 66.676 30.2301 66.7545 30.4277 66.7545Z" fill="#3A2C60"/>
	<path d="M103.28 76.1692H96.5739V32.561C96.5723 31.1781 96.0223 29.8524 95.0445 28.8746C94.0667 27.8968 92.741 27.3468 91.3582 27.3452H74.2668C72.6164 18.7295 68.7322 10.1123 61.2803 0.837202C61.2081 0.754241 61.1189 0.687731 61.0188 0.642156C60.9186 0.596581 60.8099 0.572998 60.6999 0.572998C60.5899 0.572998 60.4812 0.596581 60.381 0.642156C60.2809 0.687731 60.1917 0.754241 60.1195 0.837202C52.5775 10.2256 48.5949 18.8308 46.8506 27.3452H29.6631C28.2803 27.3468 26.9546 27.8968 25.9768 28.8746C24.999 29.8524 24.4489 31.1781 24.4474 32.561V76.1692H17.7451C17.5475 76.1692 17.358 76.2477 17.2182 76.3874C17.0785 76.5272 17 76.7167 17 76.9143V79.8448C17.0014 81.2169 17.547 82.5324 18.5171 83.5027C19.4873 84.473 20.8027 85.0188 22.1748 85.0204H98.8465C100.219 85.0188 101.534 84.473 102.505 83.5028C103.475 82.5325 104.021 81.217 104.023 79.8448V76.9143C104.023 76.7171 103.945 76.5279 103.805 76.3882C103.666 76.2486 103.477 76.1698 103.28 76.1692ZM91.3582 28.8354C92.3459 28.8366 93.2928 29.2295 93.9912 29.9279C94.6896 30.6263 95.0825 31.5732 95.0837 32.561V76.1692H91.3365V36.165C91.3365 35.5722 91.101 35.0036 90.6818 34.5844C90.2626 34.1652 89.6941 33.9297 89.1012 33.9297H78.9797C77.7554 32.423 76.3158 31.1049 74.7072 30.0179C74.6521 29.6237 74.5939 29.2296 74.5299 28.8347L91.3582 28.8354ZM54.1027 60.0763H66.923V62.7081C66.923 62.9057 66.8445 63.0952 66.7048 63.2349C66.5651 63.3747 66.3756 63.4532 66.1779 63.4532H54.8478C54.6502 63.4532 54.4607 63.3747 54.3209 63.2349C54.1812 63.0952 54.1027 62.9057 54.1027 62.7081V60.0763ZM50.5038 58.5861C49.911 58.5861 49.3424 58.3506 48.9232 57.9314C48.504 57.5122 48.2685 56.9436 48.2685 56.3508V52.0634H72.7602V56.3508C72.7602 56.9436 72.5247 57.5122 72.1055 57.9314C71.6863 58.3506 71.1178 58.5861 70.5249 58.5861H50.5038ZM46.1092 32.0148C45.5011 38.1982 45.6764 44.4337 46.6308 50.5732H37.1142C37.454 47.674 39.1178 37.5241 46.1092 32.0148ZM83.9071 50.5732H74.3257C75.278 44.4423 75.4884 38.2191 74.9523 32.0379C81.9139 37.5532 83.568 47.6785 83.9071 50.5732ZM60.6999 2.50103C73.942 19.336 75.2243 33.4625 72.8243 50.5732H48.1292C45.8417 34.1942 47.2008 19.6601 60.6999 2.50103ZM25.9376 32.561C25.9388 31.5732 26.3317 30.6263 27.0301 29.9279C27.7285 29.2295 28.6754 28.8366 29.6631 28.8354H46.5674C46.5011 29.2169 46.437 29.5977 46.3796 29.9784C44.7446 31.0708 43.2824 32.402 42.0416 33.9275H31.9186C31.3257 33.9275 30.7572 34.163 30.338 34.5822C29.9188 35.0014 29.6832 35.57 29.6832 36.1628V53.7153C29.6832 53.913 29.7617 54.1025 29.9015 54.2422C30.0412 54.382 30.2307 54.4605 30.4284 54.4605C30.626 54.4605 30.8155 54.382 30.9552 54.2422C31.095 54.1025 31.1735 53.913 31.1735 53.7153V36.165C31.1735 35.9674 31.252 35.7779 31.3917 35.6382C31.5314 35.4984 31.721 35.4199 31.9186 35.4199H40.921C36.1694 42.2876 35.5793 50.8057 35.5495 51.2729C35.5433 51.3745 35.558 51.4763 35.5926 51.572C35.6273 51.6677 35.6812 51.7553 35.751 51.8294C35.8208 51.9035 35.9051 51.9624 35.9986 52.0027C36.0921 52.043 36.1928 52.0636 36.2946 52.0634H46.7746V56.3508C46.7757 57.3385 47.1686 58.2854 47.8671 58.9838C48.5655 59.6823 49.5124 60.0752 50.5001 60.0763H52.6125V62.7081C52.6125 63.3009 52.848 63.8695 53.2672 64.2887C53.6864 64.7079 54.255 64.9434 54.8478 64.9434H66.1779C66.7708 64.9434 67.3393 64.7079 67.7586 64.2887C68.1778 63.8695 68.4133 63.3009 68.4133 62.7081V60.0763H70.5212C71.5089 60.0752 72.4558 59.6823 73.1542 58.9838C73.8526 58.2854 74.2455 57.3385 74.2467 56.3508V52.0634H84.7267C84.8285 52.0636 84.9292 52.043 85.0227 52.0027C85.1162 51.9624 85.2005 51.9035 85.2703 51.8294C85.3401 51.7553 85.394 51.6677 85.4287 51.572C85.4633 51.4763 85.478 51.3745 85.4718 51.2729C85.4435 50.8072 84.8541 42.2891 80.1025 35.4207H89.1035C89.3011 35.4207 89.4906 35.4992 89.6303 35.6389C89.7701 35.7787 89.8486 35.9682 89.8486 36.1658V76.1692H31.1735V69.3887C31.1735 69.1911 31.095 69.0016 30.9552 68.8618C30.8155 68.7221 30.626 68.6436 30.4284 68.6436C30.2307 68.6436 30.0412 68.7221 29.9015 68.8618C29.7617 69.0016 29.6832 69.1911 29.6832 69.3887V76.1692H25.9376V32.561ZM102.535 79.8448C102.534 80.822 102.145 81.7588 101.454 82.4497C100.763 83.1406 99.8259 83.5292 98.8487 83.5301H22.1748C21.1978 83.529 20.2612 83.1403 19.5704 82.4494C18.8797 81.7585 18.4912 80.8218 18.4902 79.8448V77.6594H102.535V79.8448Z" fill="#3A2C60"/>
	<path d="M65.7383 72.3366C65.9359 72.3366 66.1254 72.2581 66.2651 72.1184C66.4049 71.9787 66.4834 71.7891 66.4834 71.5915V67.1909C66.4834 66.9933 66.4049 66.8038 66.2651 66.664C66.1254 66.5243 65.9359 66.4458 65.7383 66.4458C65.5407 66.4458 65.3511 66.5243 65.2114 66.664C65.0717 66.8038 64.9932 66.9933 64.9932 67.1909V71.5915C64.9932 71.7891 65.0717 71.9787 65.2114 72.1184C65.3511 72.2581 65.5407 72.3366 65.7383 72.3366Z" fill="#3A2C60"/>
	<path d="M60.5098 75.0598C60.7074 75.0598 60.8969 74.9813 61.0366 74.8415C61.1764 74.7018 61.2549 74.5123 61.2549 74.3146V67.1914C61.2549 66.9938 61.1764 66.8043 61.0366 66.6645C60.8969 66.5248 60.7074 66.4463 60.5098 66.4463C60.3121 66.4463 60.1226 66.5248 59.9829 66.6645C59.8432 66.8043 59.7646 66.9938 59.7646 67.1914V74.3146C59.7646 74.5123 59.8432 74.7018 59.9829 74.8415C60.1226 74.9813 60.3121 75.0598 60.5098 75.0598Z" fill="#3A2C60"/>
	<path d="M55.2822 72.3366C55.4798 72.3366 55.6694 72.2581 55.8091 72.1184C55.9488 71.9787 56.0273 71.7891 56.0273 71.5915V67.1909C56.0273 66.9933 55.9488 66.8038 55.8091 66.664C55.6694 66.5243 55.4798 66.4458 55.2822 66.4458C55.0846 66.4458 54.8951 66.5243 54.7553 66.664C54.6156 66.8038 54.5371 66.9933 54.5371 67.1909V71.5915C54.5371 71.7891 54.6156 71.9787 54.7553 72.1184C54.8951 72.2581 55.0846 72.3366 55.2822 72.3366Z" fill="#3A2C60"/>
</svg>